<svg xmlns="http://www.w3.org/2000/svg" viewBox="0 0 48 48"><style>.st1{fill:#ffc258}.st2{fill:#4f4b45}.st3{fill:#fabfa5}.st10{fill:none;stroke:#45413c;stroke-linecap:round;stroke-linejoin:round;stroke-miterlimit:10}.st25{fill:#9ceb60}.st26{fill:#6dd627}.st35{fill:#00b8f0}.st36{fill:#4acfff}</style><symbol id="New_Symbol_14" viewBox="-6.5 -6.5 13 13"><path d="M0-6c2.2 0 4.1 1.5 4.7 3.5 0 0 0 0 0 0C6.3-2.5 6.4 0 5 0v1c0 2.8-2.2 5-5 5s-5-2.2-5-5V0c-1.4 0-1.3-2.5.2-2.5 0 0 0 0 0 0C-4.1-4.5-2.2-6 0-6z" fill="#ffd4c3" stroke="#504b46" stroke-linecap="round" stroke-linejoin="round" stroke-miterlimit="10"/><circle class="st1" cx="-1.6" cy="-.1" r=".1"/><path class="st2" d="M-1.6.5c-.3 0-.6-.3-.6-.6s.2-.7.6-.7c.3 0 .6.3.6.7s-.3.6-.6.6z"/><circle class="st1" cx="1.6" cy="-.1" r=".1"/><path class="st2" d="M1.6.5C1.3.5 1 .2 1-.1s.3-.6.6-.6.6.3.6.6-.2.6-.6.6z"/><circle class="st3" cx="-3" cy="-1.5" r=".5"/><circle class="st3" cx="3" cy="-1.5" r=".5"/><path d="M-1.2-3c.8-.5 1.7-.5 2.5 0" fill="none" stroke="#504b46" stroke-linecap="round" stroke-linejoin="round" stroke-miterlimit="10"/></symbol><g id="Icons"><g id="XMLID_1973_"><path id="XMLID_2430_" fill="#debb7e" d="M13.3 16.6h4.3v22.3h-4.3z"/><path id="XMLID_2429_" d="M13.3 32.1c.4.2.8.3 1.3.3 1.2 0 2.3-.8 2.8-1.8.1 0 .2 0 .2.1V16.6h-4.3v15.5z" fill="#b89558"/><path id="XMLID_2428_" class="st10" d="M13.3 16.6h4.3v22.3h-4.3z"/><path id="XMLID_2427_" class="st26" d="M15.4 6.8c-5.5 0-10 4.3-10.4 9.7-2.5 1-4.2 3.4-4.2 6.2 0 3.7 3 6.6 6.6 6.6 1.9 0 3.6-.8 4.8-2.1 1 .3 2.1.5 3.2.5 5.8 0 10.4-4.7 10.4-10.4S21.2 6.8 15.4 6.8z"/><path id="XMLID_2426_" class="st25" d="M5 19.3c.4-5.4 4.9-9.7 10.4-9.7 5.3 0 9.7 3.9 10.3 9.1.1-.5.1-.9.1-1.4 0-5.8-4.7-10.4-10.4-10.4-5.5 0-10 4.3-10.4 9.7-2.5 1-4.2 3.4-4.2 6.2 0 .5.1 1 .2 1.4.4-2.3 1.9-4.1 4-4.9z"/><path id="XMLID_2425_" class="st10" d="M15.4 6.8c-5.5 0-10 4.3-10.4 9.7-2.5 1-4.2 3.4-4.2 6.2 0 3.7 3 6.6 6.6 6.6 1.9 0 3.6-.8 4.8-2.1 1 .3 2.1.5 3.2.5 5.8 0 10.4-4.7 10.4-10.4S21.2 6.8 15.4 6.8z"/><path id="XMLID_2424_" d="M15.4 21.9L27 15.1c.5-.3 1.2-.3 1.7 0l11.7 6.8c.7.4.9 1.2.6 1.9-.4.8-1.3 1.1-2.1.6l-11-6.4-11 6.4c-.8.4-1.7.1-2.1-.6-.4-.7-.1-1.5.6-1.9z" fill="#ff6242"/><path id="XMLID_2423_" d="M14.9 24c.1-.2.3-.3.5-.4L27 16.8c.5-.3 1.2-.3 1.7 0l11.7 6.8c.2.1.4.3.5.4 0-.1.1-.1.1-.2.3-.7.1-1.5-.6-1.9l-11.7-6.8c-.5-.3-1.2-.3-1.7 0l-11.7 6.8c-.7.4-.9 1.2-.6 1.9.1.1.1.2.2.2z" fill="#ff866e"/><path id="XMLID_2422_" class="st10" d="M15.4 21.9L27 15.1c.5-.3 1.2-.3 1.7 0l11.7 6.8c.7.4.9 1.2.6 1.9-.4.8-1.3 1.1-2.1.6l-11-6.4-11 6.4c-.8.4-1.7.1-2.1-.6-.4-.7-.1-1.5.6-1.9z"/><ellipse id="XMLID_2421_" cx="26.2" cy="39.7" rx="21" ry="1.5" opacity=".15" fill="#45413c"/><path id="XMLID_2420_" fill="#fffacf" d="M38.2 38.9H17.6V24l10.3-6 10.3 6z"/><path id="XMLID_2419_" fill="#fff48c" d="M27.9 18l-10.3 6v2.4l10.3-6 10.3 6V24z"/><path id="XMLID_2418_" class="st10" d="M38.2 38.9H17.6V24l10.3-6 10.3 6z"/><path id="XMLID_2417_" d="M29.2 38.9h-9.9v-1.3c0-.5.4-.9.9-.9h8.2c.5 0 .9.4.9.9v1.3z" fill="#e0e0e0" stroke="#45413c" stroke-linecap="round" stroke-linejoin="round" stroke-miterlimit="10"/><path id="XMLID_1763_" d="M27.1 26.4h-5.6c-.5 0-.9.4-.9.9v9.4h7.3v-9.4c0-.5-.4-.9-.8-.9z" fill="#bf8256"/><path id="XMLID_722_" d="M27.1 26.4h-5.6c-.5 0-.9.4-.9.9V29c0-.5.4-.9.9-.9h5.6c.5 0 .9.4.9.9v-1.7c-.1-.5-.5-.9-.9-.9z" fill="#915e3a"/><path id="XMLID_721_" class="st10" d="M27.1 26.4h-5.6c-.5 0-.9.4-.9.9v9.4h7.3v-9.4c0-.5-.4-.9-.8-.9z"/><path id="XMLID_720_" class="st35" d="M34.8 31.6h-3.4c-.5 0-.9-.4-.9-.9v-3.4c0-.5.4-.9.9-.9h3.4c.5 0 .9.4.9.9v3.4c-.1.5-.4.9-.9.9z"/><path id="XMLID_718_" class="st36" d="M34.8 26.4h-3.4c-.5 0-.9.4-.9.9v3.4c0 .5.4.9.9.9h.6l3-5.1c-.1 0-.2-.1-.2-.1z"/><path id="XMLID_717_" class="st35" d="M25.3 32h-2.1c-.5 0-.9-.4-.9-.9V29c0-.5.4-.9.9-.9h2.1c.5 0 .9.4.9.9v2.1c0 .5-.4.9-.9.9z"/><path id="XMLID_716_" class="st36" d="M25.3 28.1h-2.1c-.5 0-.9.4-.9.9v2.1c0 .5.4.9.9.9h.2l2.2-3.8c-.1 0-.2-.1-.3-.1z"/><path id="XMLID_713_" class="st10" d="M34.8 31.6h-3.4c-.5 0-.9-.4-.9-.9v-3.4c0-.5.4-.9.9-.9h3.4c.5 0 .9.4.9.9v3.4c-.1.5-.4.9-.9.9z"/><path id="XMLID_712_" class="st10" d="M25.3 32h-2.1c-.5 0-.9-.4-.9-.9V29c0-.5.4-.9.9-.9h2.1c.5 0 .9.4.9.9v2.1c0 .5-.4.9-.9.9z"/><path id="XMLID_709_" class="st26" d="M45.5 38.9c.5-.4.9-1 .9-1.7 0-1.2-1-2.1-2.1-2.1-.5 0-1 .2-1.4.5-.4-1.8-1.9-3.1-3.8-3.1-2.1 0-3.9 1.7-3.9 3.9 0 1 .4 1.9 1 2.6h9.3z"/><path id="XMLID_708_" class="st25" d="M39.1 34.2c1.9 0 3.4 1.3 3.8 3.1.4-.3.8-.5 1.4-.5.9 0 1.6.5 2 1.3.1-.3.2-.5.2-.9 0-1.2-1-2.1-2.1-2.1-.5 0-1 .2-1.4.5-.4-1.8-1.9-3.1-3.8-3.1-2.1 0-3.9 1.7-3.9 3.9 0 .3 0 .6.1.9.3-1.8 1.8-3.1 3.7-3.1z"/><path id="XMLID_707_" class="st10" d="M45.5 38.9c.5-.4.9-1 .9-1.7 0-1.2-1-2.1-2.1-2.1-.5 0-1 .2-1.4.5-.4-1.8-1.9-3.1-3.8-3.1-2.1 0-3.9 1.7-3.9 3.9 0 1 .4 1.9 1 2.6h9.3z"/></g></g></svg>BEC0;stroke:#45413C;stroke-linecap:round;stroke-linejoin:round;stroke-miterlimit:10;}
	.st85{fill:#87898C;stroke:#45413C;stroke-linecap:round;stroke-linejoin:round;stroke-miterlimit:10;}
	.st86{fill:#00DFEB;}
	.st87{fill:#4AEFF7;}
	.st88{fill:#DAEDF7;stroke:#45413C;stroke-linecap:round;stroke-linejoin:round;stroke-miterlimit:10;}
	.st89{fill:#FFDA8F;}
	.st90{fill:#FFBE3D;}
	.st91{fill:#FFE9BD;}
	.st92{fill:#DEA47A;stroke:#45413C;stroke-linecap:round;stroke-linejoin:round;stroke-miterlimit:10;}
	.st93{fill:#45413C;}
	.st94{fill:#F0C2A1;}
	.st95{fill:none;stroke:#45413C;stroke-width:1.0064;stroke-linecap:round;stroke-linejoin:round;stroke-miterlimit:10;}
	.st96{fill:#525252;}
	.st97{fill:#EB6D00;stroke:#45413C;stroke-linecap:round;stroke-linejoin:round;stroke-miterlimit:10;}
	.st98{fill:#EB6D00;}
	.st99{fill:#E5FEFF;}
	.st100{fill:#FF866E;stroke:#45413C;stroke-linecap:round;stroke-linejoin:round;stroke-miterlimit:10;}
	.st101{fill:#627B8C;stroke:#45413C;stroke-linecap:round;stroke-linejoin:round;stroke-miterlimit:10;}
	.st102{fill:#FFFCE5;stroke:#45413C;stroke-linecap:round;stroke-linejoin:round;stroke-miterlimit:10;}
	.st103{fill:#A6FBFF;}
	.st104{fill:#D9FDFF;}
	.st105{fill:#FFFACF;stroke:#45413C;stroke-linecap:round;stroke-linejoin:round;stroke-miterlimit:10;}
	.st106{fill:#B8ECFF;}
	.st107{fill:#FFCABF;}
	.st108{fill:#E5FFF9;}
	.st109{fill:#C8FFA1;stroke:#45413C;stroke-linecap:round;stroke-linejoin:round;stroke-miterlimit:10;}
	.st110{fill:#4CF4FC;}
	.st111{fill:#F0D5A8;stroke:#45413C;stroke-linecap:round;stroke-linejoin:round;stroke-miterlimit:10;}
	.st112{fill:#FFDCD1;stroke:#45413C;stroke-linecap:round;stroke-linejoin:round;stroke-miterlimit:10;}
	.st113{fill:#80DDFF;}
	.st114{fill:#46B000;stroke:#45413C;stroke-linecap:round;stroke-linejoin:round;stroke-miterlimit:10;}
	.st115{fill:#4ACFFF;stroke:#45413C;stroke-linecap:round;stroke-linejoin:round;stroke-miterlimit:10;}
	.st116{fill:#ADC4D9;}
	.st117{fill:#BDBEC0;stroke:#45413C;stroke-width:1.0064;stroke-linecap:round;stroke-linejoin:round;stroke-miterlimit:10;}
	.st118{fill:#FFFCE5;}
	.st119{fill:#947746;}
	.st120{fill:#525252;stroke:#45413C;stroke-linecap:round;stroke-linejoin:round;stroke-miterlimit:10;}
</style>
<symbol  id="New_Symbol_14" viewBox="-6.5 -6.5 13 13">
	<path class="st0" d="M0-6c2.2,0,4.1,1.5,4.7,3.5c0,0,0,0,0,0C6.3-2.5,6.4,0,5,0v1c0,2.8-2.2,5-5,5c-2.8,0-5-2.2-5-5V0
		c-1.4,0-1.3-2.5,0.2-2.5c0,0,0,0,0,0C-4.1-4.5-2.2-6,0-6z"/>
	<g>
		<circle class="st1" cx="-1.6" cy="-0.1" r="0.1"/>
		<path class="st2" d="M-1.6,0.5c-0.3,0-0.6-0.3-0.6-0.6S-2-0.8-1.6-0.8C-1.3-0.8-1-0.5-1-0.1S-1.3,0.5-1.6,0.5L-1.6,0.5z"/>
	</g>
	<g>
		<circle class="st1" cx="1.6" cy="-0.1" r="0.1"/>
		<path class="st2" d="M1.6,0.5C1.3,0.5,1,0.2,1-0.1s0.3-0.6,0.6-0.6c0.3,0,0.6,0.3,0.6,0.6S2,0.5,1.6,0.5L1.6,0.5z"/>
	</g>
	<circle class="st3" cx="-3" cy="-1.5" r="0.5"/>
	<circle class="st3" cx="3" cy="-1.5" r="0.5"/>
	<path class="st4" d="M-1.2-3c0.8-0.5,1.7-0.5,2.5,0"/>
</symbol>
<g id="Bg">
</g>
<g id="Icons">
	<g id="XMLID_1973_">
		<rect id="XMLID_2430_" x="13.3" y="16.6" class="st9" width="4.3" height="22.3"/>
		<path id="XMLID_2429_" class="st66" d="M13.3,32.1c0.4,0.2,0.8,0.3,1.3,0.3c1.2,0,2.3-0.8,2.8-1.8c0.1,0,0.2,0,0.2,0.1V16.6h-4.3
			V32.1z"/>
		<rect id="XMLID_2428_" x="13.3" y="16.6" class="st10" width="4.3" height="22.3"/>
		<path id="XMLID_2427_" class="st26" d="M15.4,6.8c-5.5,0-10,4.3-10.4,9.7c-2.5,1-4.2,3.4-4.2,6.2c0,3.7,3,6.6,6.6,6.6
			c1.9,0,3.6-0.8,4.8-2.1c1,0.3,2.1,0.5,3.2,0.5c5.8,0,10.4-4.7,10.4-10.4S21.2,6.8,15.4,6.8z"/>
		<path id="XMLID_2426_" class="st25" d="M5,19.3c0.4-5.4,4.9-9.7,10.4-9.7c5.3,0,9.7,3.9,10.3,9.1c0.1-0.5,0.1-0.9,0.1-1.4
			c0-5.8-4.7-10.4-10.4-10.4c-5.5,0-10,4.3-10.4,9.7c-2.5,1-4.2,3.4-4.2,6.2c0,0.5,0.1,1,0.2,1.4C1.4,21.9,2.9,20.1,5,19.3z"/>
		<path id="XMLID_2425_" class="st10" d="M15.4,6.8c-5.5,0-10,4.3-10.4,9.7c-2.5,1-4.2,3.4-4.2,6.2c0,3.7,3,6.6,6.6,6.6
			c1.9,0,3.6-0.8,4.8-2.1c1,0.3,2.1,0.5,3.2,0.5c5.8,0,10.4-4.7,10.4-10.4S21.2,6.8,15.4,6.8z"/>
		<path id="XMLID_2424_" class="st57" d="M15.4,21.9L27,15.1c0.5-0.3,1.2-0.3,1.7,0l11.7,6.8c0.7,0.4,0.9,1.2,0.6,1.9l0,0
			c-0.4,0.8-1.3,1.1-2.1,0.6l-11-6.4l-11,6.4c-0.8,0.4-1.7,0.1-2.1-0.6l0,0C14.4,23.1,14.7,22.3,15.4,21.9z"/>
		<path id="XMLID_2423_" class="st62" d="M14.9,24c0.1-0.2,0.3-0.3,0.5-0.4L27,16.8c0.5-0.3,1.2-0.3,1.7,0l11.7,6.8
			c0.2,0.1,0.4,0.3,0.5,0.4c0-0.1,0.1-0.1,0.1-0.2c0.3-0.7,0.1-1.5-0.6-1.9l-11.7-6.8c-0.5-0.3-1.2-0.3-1.7,0l-11.7,6.8
			c-0.7,0.4-0.9,1.2-0.6,1.9C14.8,23.9,14.8,24,14.9,24z"/>
		<path id="XMLID_2422_" class="st10" d="M15.4,21.9L27,15.1c0.5-0.3,1.2-0.3,1.7,0l11.7,6.8c0.7,0.4,0.9,1.2,0.6,1.9l0,0
			c-0.4,0.8-1.3,1.1-2.1,0.6l-11-6.4l-11,6.4c-0.8,0.4-1.7,0.1-2.1-0.6l0,0C14.4,23.1,14.7,22.3,15.4,21.9z"/>
		<ellipse id="XMLID_2421_" class="st5" cx="26.2" cy="39.7" rx="21" ry="1.5"/>
		<polygon id="XMLID_2420_" class="st28" points="38.2,38.9 17.6,38.9 17.6,24 27.9,18 38.2,24 		"/>
		<polygon id="XMLID_2419_" class="st45" points="27.9,18 17.6,24 17.6,26.4 27.9,20.4 38.2,26.4 38.2,24 		"/>
		<polygon id="XMLID_2418_" class="st10" points="38.2,38.9 17.6,38.9 17.6,24 27.9,18 38.2,24 		"/>
		<path id="XMLID_2417_" class="st81" d="M29.2,38.9h-9.9v-1.3c0-0.5,0.4-0.9,0.9-0.9h8.2c0.5,0,0.9,0.4,0.9,0.9V38.9z"/>
		<path id="XMLID_1763_" class="st37" d="M27.1,26.4h-5.6c-0.5,0-0.9,0.4-0.9,0.9v9.4h7.3v-9.4C27.9,26.8,27.5,26.4,27.1,26.4z"/>
		<path id="XMLID_722_" class="st39" d="M27.1,26.4h-5.6c-0.5,0-0.9,0.4-0.9,0.9V29c0-0.5,0.4-0.9,0.9-0.9h5.6
			c0.5,0,0.9,0.4,0.9,0.9v-1.7C27.9,26.8,27.5,26.4,27.1,26.4z"/>
		<path id="XMLID_721_" class="st10" d="M27.1,26.4h-5.6c-0.5,0-0.9,0.4-0.9,0.9v9.4h7.3v-9.4C27.9,26.8,27.5,26.4,27.1,26.4z"/>
		<path id="XMLID_720_" class="st35" d="M34.8,31.6h-3.4c-0.5,0-0.9-0.4-0.9-0.9v-3.4c0-0.5,0.4-0.9,0.9-0.9h3.4
			c0.5,0,0.9,0.4,0.9,0.9v3.4C35.6,31.2,35.3,31.6,34.8,31.6z"/>
		<path id="XMLID_718_" class="st36" d="M34.8,26.4h-3.4c-0.5,0-0.9,0.4-0.9,0.9v3.4c0,0.5,0.4,0.9,0.9,0.9H32l3-5.1
			C34.9,26.5,34.8,26.4,34.8,26.4z"/>
		<path id="XMLID_717_" class="st35" d="M25.3,32h-2.1c-0.5,0-0.9-0.4-0.9-0.9V29c0-0.5,0.4-0.9,0.9-0.9h2.1c0.5,0,0.9,0.4,0.9,0.9
			v2.1C26.2,31.6,25.8,32,25.3,32z"/>
		<path id="XMLID_716_" class="st36" d="M25.3,28.1h-2.1c-0.5,0-0.9,0.4-0.9,0.9v2.1c0,0.5,0.4,0.9,0.9,0.9h0.2l2.2-3.8
			C25.5,28.2,25.4,28.1,25.3,28.1z"/>
		<path id="XMLID_713_" class="st10" d="M34.8,31.6h-3.4c-0.5,0-0.9-0.4-0.9-0.9v-3.4c0-0.5,0.4-0.9,0.9-0.9h3.4
			c0.5,0,0.9,0.4,0.9,0.9v3.4C35.6,31.2,35.3,31.6,34.8,31.6z"/>
		<path id="XMLID_712_" class="st10" d="M25.3,32h-2.1c-0.5,0-0.9-0.4-0.9-0.9V29c0-0.5,0.4-0.9,0.9-0.9h2.1c0.5,0,0.9,0.4,0.9,0.9
			v2.1C26.2,31.6,25.8,32,25.3,32z"/>
		<path id="XMLID_709_" class="st26" d="M45.5,38.9c0.5-0.4,0.9-1,0.9-1.7c0-1.2-1-2.1-2.1-2.1c-0.5,0-1,0.2-1.4,0.5
			c-0.4-1.8-1.9-3.1-3.8-3.1c-2.1,0-3.9,1.7-3.9,3.9c0,1,0.4,1.9,1,2.6H45.5z"/>
		<path id="XMLID_708_" class="st25" d="M39.1,34.2c1.9,0,3.4,1.3,3.8,3.1c0.4-0.3,0.8-0.5,1.4-0.5c0.9,0,1.6,0.5,2,1.3
			c0.1-0.3,0.2-0.5,0.2-0.9c0-1.2-1-2.1-2.1-2.1c-0.5,0-1,0.2-1.4,0.5c-0.4-1.8-1.9-3.1-3.8-3.1c-2.1,0-3.9,1.7-3.9,3.9
			c0,0.3,0,0.6,0.1,0.9C35.7,35.5,37.2,34.2,39.1,34.2z"/>
		<path id="XMLID_707_" class="st10" d="M45.5,38.9c0.5-0.4,0.9-1,0.9-1.7c0-1.2-1-2.1-2.1-2.1c-0.5,0-1,0.2-1.4,0.5
			c-0.4-1.8-1.9-3.1-3.8-3.1c-2.1,0-3.9,1.7-3.9,3.9c0,1,0.4,1.9,1,2.6H45.5z"/>
	</g>
</g>
</svg>
